<svg width="375" height="375" fill="none" xmlns="http://www.w3.org/2000/svg"><g filter="url(#▶ Frame 18__a)" stroke="#000" stroke-width="20"><path d="M198.397 57H108v131h90.397c46.446 0 70.98-37.434 68.421-70.77C264.513 87.197 238.85 57 198.397 57Zm.103 131H108v130.5h90.5c46.5 0 71.062-37.291 68.5-70.5-2.308-29.918-28-60-68.5-60Z"/><path d="M166.5 139c-9.389-27.273-40.333-29.5-53.5-28.5v75h19c1.333-6 45-16 34.5-46.5Zm-.061 131.706c-9.367-25.393-40.239-27.466-53.375-26.535V314h18.956c1.33-5.586 44.895-14.897 34.419-43.294Z" fill="#000"/></g><defs><filter id="▶ Frame 18__a" x="94" y="47" width="187.18" height="289.5" filterUnits="userSpaceOnUse" color-interpolation-filters="sRGB"><feFlood flood-opacity="0" result="BackgroundImageFix"/><feColorMatrix in="SourceAlpha" values="0 0 0 0 0 0 0 0 0 0 0 0 0 0 0 0 0 0 127 0" result="hardAlpha"/><feOffset dy="4"/><feGaussianBlur stdDeviation="2"/><feComposite in2="hardAlpha" operator="out"/><feColorMatrix values="0 0 0 0 0 0 0 0 0 0 0 0 0 0 0 0 0 0 0.25 0"/><feBlend in2="BackgroundImageFix" result="effect1_dropShadow_335_950"/><feBlend in="SourceGraphic" in2="effect1_dropShadow_335_950" result="shape"/></filter></defs></svg>